<mxfile host="65bd71144e">
    <diagram id="fWZBVNt1LimBXcbVgpcD" name="Page-1">
        <mxGraphModel dx="575" dy="499" grid="1" gridSize="10" guides="1" tooltips="1" connect="1" arrows="1" fold="1" page="1" pageScale="1" pageWidth="850" pageHeight="1100" math="0" shadow="0">
            <root>
                <mxCell id="0"/>
                <mxCell id="1" parent="0"/>
                <mxCell id="3" value="" style="rounded=0;whiteSpace=wrap;html=1;" vertex="1" parent="1">
                    <mxGeometry x="230" y="140" width="200" height="250" as="geometry"/>
                </mxCell>
                <mxCell id="4" value="" style="rounded=0;whiteSpace=wrap;html=1;" vertex="1" parent="1">
                    <mxGeometry x="240" y="160" width="180" height="50" as="geometry"/>
                </mxCell>
                <mxCell id="5" value="7" style="whiteSpace=wrap;html=1;aspect=fixed;" vertex="1" parent="1">
                    <mxGeometry x="245" y="220" width="30" height="30" as="geometry"/>
                </mxCell>
                <mxCell id="6" value="8" style="whiteSpace=wrap;html=1;aspect=fixed;" vertex="1" parent="1">
                    <mxGeometry x="290" y="220" width="30" height="30" as="geometry"/>
                </mxCell>
                <mxCell id="7" value="9" style="whiteSpace=wrap;html=1;aspect=fixed;" vertex="1" parent="1">
                    <mxGeometry x="335" y="220" width="30" height="30" as="geometry"/>
                </mxCell>
                <mxCell id="14" value="/" style="whiteSpace=wrap;html=1;aspect=fixed;" vertex="1" parent="1">
                    <mxGeometry x="380" y="220" width="30" height="30" as="geometry"/>
                </mxCell>
                <mxCell id="15" value="4" style="whiteSpace=wrap;html=1;aspect=fixed;" vertex="1" parent="1">
                    <mxGeometry x="245" y="260" width="30" height="30" as="geometry"/>
                </mxCell>
                <mxCell id="16" value="5" style="whiteSpace=wrap;html=1;aspect=fixed;" vertex="1" parent="1">
                    <mxGeometry x="290" y="260" width="30" height="30" as="geometry"/>
                </mxCell>
                <mxCell id="17" value="6" style="whiteSpace=wrap;html=1;aspect=fixed;" vertex="1" parent="1">
                    <mxGeometry x="335" y="260" width="30" height="30" as="geometry"/>
                </mxCell>
                <mxCell id="18" value="*" style="whiteSpace=wrap;html=1;aspect=fixed;" vertex="1" parent="1">
                    <mxGeometry x="380" y="260" width="30" height="30" as="geometry"/>
                </mxCell>
                <mxCell id="19" value="1" style="whiteSpace=wrap;html=1;aspect=fixed;" vertex="1" parent="1">
                    <mxGeometry x="245" y="300" width="30" height="30" as="geometry"/>
                </mxCell>
                <mxCell id="20" value="2" style="whiteSpace=wrap;html=1;aspect=fixed;" vertex="1" parent="1">
                    <mxGeometry x="290" y="300" width="30" height="30" as="geometry"/>
                </mxCell>
                <mxCell id="21" value="3" style="whiteSpace=wrap;html=1;aspect=fixed;" vertex="1" parent="1">
                    <mxGeometry x="335" y="300" width="30" height="30" as="geometry"/>
                </mxCell>
                <mxCell id="22" value="-" style="whiteSpace=wrap;html=1;aspect=fixed;" vertex="1" parent="1">
                    <mxGeometry x="380" y="300" width="30" height="30" as="geometry"/>
                </mxCell>
                <mxCell id="23" value="CLR" style="whiteSpace=wrap;html=1;aspect=fixed;" vertex="1" parent="1">
                    <mxGeometry x="245" y="340" width="30" height="30" as="geometry"/>
                </mxCell>
                <mxCell id="24" value="0" style="whiteSpace=wrap;html=1;aspect=fixed;" vertex="1" parent="1">
                    <mxGeometry x="290" y="340" width="30" height="30" as="geometry"/>
                </mxCell>
                <mxCell id="26" value="+" style="whiteSpace=wrap;html=1;aspect=fixed;" vertex="1" parent="1">
                    <mxGeometry x="380" y="340" width="30" height="30" as="geometry"/>
                </mxCell>
                <mxCell id="42" value="Calculator" style="text;html=1;align=center;verticalAlign=middle;whiteSpace=wrap;rounded=0;" vertex="1" parent="1">
                    <mxGeometry x="240" y="135" width="62" height="30" as="geometry"/>
                </mxCell>
                <mxCell id="43" value="" style="endArrow=classic;html=1;exitX=0.926;exitY=0.893;exitDx=0;exitDy=0;exitPerimeter=0;entryX=0.14;entryY=0.356;entryDx=0;entryDy=0;entryPerimeter=0;" edge="1" parent="1" source="4" target="44">
                    <mxGeometry width="50" height="50" relative="1" as="geometry">
                        <mxPoint x="270" y="280" as="sourcePoint"/>
                        <mxPoint x="500" y="130" as="targetPoint"/>
                    </mxGeometry>
                </mxCell>
                <mxCell id="44" value="Entry" style="text;html=1;align=center;verticalAlign=middle;whiteSpace=wrap;rounded=0;" vertex="1" parent="1">
                    <mxGeometry x="490" y="135" width="62" height="30" as="geometry"/>
                </mxCell>
                <mxCell id="45" value="" style="endArrow=none;html=1;" edge="1" parent="1">
                    <mxGeometry width="50" height="50" relative="1" as="geometry">
                        <mxPoint x="280" y="410" as="sourcePoint"/>
                        <mxPoint x="280" y="100" as="targetPoint"/>
                    </mxGeometry>
                </mxCell>
                <mxCell id="46" value="" style="endArrow=none;html=1;" edge="1" parent="1">
                    <mxGeometry width="50" height="50" relative="1" as="geometry">
                        <mxPoint x="329.5" y="410" as="sourcePoint"/>
                        <mxPoint x="329.5" y="100" as="targetPoint"/>
                    </mxGeometry>
                </mxCell>
                <mxCell id="47" value="" style="endArrow=none;html=1;" edge="1" parent="1">
                    <mxGeometry width="50" height="50" relative="1" as="geometry">
                        <mxPoint x="370" y="410" as="sourcePoint"/>
                        <mxPoint x="370" y="100" as="targetPoint"/>
                    </mxGeometry>
                </mxCell>
                <mxCell id="48" value="" style="endArrow=none;html=1;" edge="1" parent="1">
                    <mxGeometry width="50" height="50" relative="1" as="geometry">
                        <mxPoint x="460" y="214" as="sourcePoint"/>
                        <mxPoint x="200" y="214" as="targetPoint"/>
                    </mxGeometry>
                </mxCell>
                <mxCell id="49" value="" style="endArrow=none;html=1;" edge="1" parent="1">
                    <mxGeometry width="50" height="50" relative="1" as="geometry">
                        <mxPoint x="460" y="253" as="sourcePoint"/>
                        <mxPoint x="200" y="253" as="targetPoint"/>
                    </mxGeometry>
                </mxCell>
                <mxCell id="50" value="" style="endArrow=none;html=1;" edge="1" parent="1">
                    <mxGeometry width="50" height="50" relative="1" as="geometry">
                        <mxPoint x="460" y="295" as="sourcePoint"/>
                        <mxPoint x="200" y="295" as="targetPoint"/>
                    </mxGeometry>
                </mxCell>
                <mxCell id="51" value="" style="endArrow=none;html=1;" edge="1" parent="1">
                    <mxGeometry width="50" height="50" relative="1" as="geometry">
                        <mxPoint x="459" y="334" as="sourcePoint"/>
                        <mxPoint x="199" y="334" as="targetPoint"/>
                    </mxGeometry>
                </mxCell>
                <mxCell id="53" value="" style="endArrow=classic;html=1;exitX=0.733;exitY=0.6;exitDx=0;exitDy=0;exitPerimeter=0;entryX=0;entryY=0.75;entryDx=0;entryDy=0;" edge="1" parent="1" source="18" target="54">
                    <mxGeometry width="50" height="50" relative="1" as="geometry">
                        <mxPoint x="430" y="280" as="sourcePoint"/>
                        <mxPoint x="480" y="250" as="targetPoint"/>
                    </mxGeometry>
                </mxCell>
                <mxCell id="54" value="Button" style="text;html=1;align=center;verticalAlign=middle;whiteSpace=wrap;rounded=0;" vertex="1" parent="1">
                    <mxGeometry x="490" y="210" width="60" height="30" as="geometry"/>
                </mxCell>
                <mxCell id="55" value="row = 0" style="text;html=1;align=center;verticalAlign=middle;whiteSpace=wrap;rounded=0;fontColor=#FF6666;" vertex="1" parent="1">
                    <mxGeometry x="580" y="170" width="60" height="30" as="geometry"/>
                </mxCell>
                <mxCell id="56" value="row = 1" style="text;html=1;align=center;verticalAlign=middle;whiteSpace=wrap;rounded=0;fontColor=#FF6666;" vertex="1" parent="1">
                    <mxGeometry x="580" y="220" width="60" height="30" as="geometry"/>
                </mxCell>
                <mxCell id="58" value="row = 2" style="text;html=1;align=center;verticalAlign=middle;whiteSpace=wrap;rounded=0;fontColor=#FF6666;" vertex="1" parent="1">
                    <mxGeometry x="580" y="260" width="60" height="30" as="geometry"/>
                </mxCell>
                <mxCell id="59" value="row = 3" style="text;html=1;align=center;verticalAlign=middle;whiteSpace=wrap;rounded=0;fontColor=#FF6666;" vertex="1" parent="1">
                    <mxGeometry x="580" y="300" width="60" height="30" as="geometry"/>
                </mxCell>
                <mxCell id="60" value="row = 4" style="text;html=1;align=center;verticalAlign=middle;whiteSpace=wrap;rounded=0;fontColor=#FF6666;" vertex="1" parent="1">
                    <mxGeometry x="580" y="350" width="60" height="30" as="geometry"/>
                </mxCell>
                <mxCell id="62" value="=" style="whiteSpace=wrap;html=1;aspect=fixed;" vertex="1" parent="1">
                    <mxGeometry x="335" y="340" width="30" height="30" as="geometry"/>
                </mxCell>
            </root>
        </mxGraphModel>
    </diagram>
</mxfile>